<svg xmlns="http://www.w3.org/2000/svg" viewBox="0 0 800 430" role="img" aria-label="Unlabelled filter response 6">
  <defs><style>text { font-family: IBM Plex Mono, monospace; }</style><clipPath id="clip"><rect x="79" y="49" width="683" height="282"/></clipPath></defs>
  <rect width="800" height="430" fill="#111827"/>
  <rect x="79" y="49" width="683" height="282" fill="#0a0e1a"/>
  <line x1="79" y1="49.0" x2="762" y2="49.0" stroke="#1e293b" stroke-width="1"/>
  <line x1="79" y1="96.0" x2="762" y2="96.0" stroke="#1e293b" stroke-width="1"/>
  <line x1="79" y1="143.0" x2="762" y2="143.0" stroke="#1e293b" stroke-width="1"/>
  <line x1="79" y1="190.0" x2="762" y2="190.0" stroke="#1e293b" stroke-width="1"/>
  <line x1="79" y1="237.0" x2="762" y2="237.0" stroke="#1e293b" stroke-width="1"/>
  <line x1="79" y1="284.0" x2="762" y2="284.0" stroke="#1e293b" stroke-width="1"/>
  <line x1="79" y1="331.0" x2="762" y2="331.0" stroke="#1e293b" stroke-width="1"/>
  <rect x="79" y="49" width="683" height="282" fill="none" stroke="#1e293b" stroke-width="1.5"/>
  <text x="420.5" y="359" text-anchor="middle" font-size="12" fill="#94a3b8">Frequency →</text>
  <text transform="translate(20,190.0) rotate(-90)" text-anchor="middle" font-size="12" fill="#94a3b8">Amplitude</text>
  <path d="M 79.0,49.0 L 82.1,49.0 L 85.2,49.0 L 88.3,49.0 L 91.4,49.0 L 94.5,49.0 L 97.6,49.0 L 100.7,49.0 L 103.8,49.0 L 106.9,49.0 L 110.0,49.0 L 113.2,49.0 L 116.3,49.0 L 119.4,49.0 L 122.5,49.0 L 125.6,49.0 L 128.7,49.0 L 131.8,49.0 L 134.9,49.0 L 138.0,49.0 L 141.1,49.0 L 144.2,49.0 L 147.3,49.0 L 150.4,49.0 L 153.5,49.0 L 156.6,49.0 L 159.7,49.0 L 162.8,49.0 L 165.9,49.0 L 169.0,49.0 L 172.1,49.0 L 175.2,49.0 L 178.3,49.0 L 181.4,49.0 L 184.6,49.0 L 187.7,49.0 L 190.8,49.0 L 193.9,49.0 L 197.0,49.0 L 200.1,49.0 L 203.2,49.0 L 206.3,49.0 L 209.4,49.0 L 212.5,49.0 L 215.6,49.0 L 218.7,49.0 L 221.8,49.0 L 224.9,49.0 L 228.0,49.0 L 231.1,49.0 L 234.2,49.0 L 237.3,49.0 L 240.4,49.0 L 243.5,49.0 L 246.6,49.0 L 249.8,49.1 L 252.9,49.1 L 256.0,49.1 L 259.1,49.1 L 262.2,49.1 L 265.3,49.1 L 268.4,49.1 L 271.5,49.1 L 274.6,49.1 L 277.7,49.1 L 280.8,49.1 L 283.9,49.1 L 287.0,49.1 L 290.1,49.1 L 293.2,49.1 L 296.3,49.1 L 299.4,49.1 L 302.5,49.1 L 305.6,49.1 L 308.7,49.1 L 311.8,49.2 L 314.9,49.2 L 318.0,49.2 L 321.2,49.2 L 324.3,49.2 L 327.4,49.2 L 330.5,49.2 L 333.6,49.3 L 336.7,49.3 L 339.8,49.3 L 342.9,49.3 L 346.0,49.4 L 349.1,49.4 L 352.2,49.4 L 355.3,49.5 L 358.4,49.5 L 361.5,49.6 L 364.6,49.7 L 367.7,49.8 L 370.8,49.9 L 373.9,50.0 L 377.0,50.1 L 380.1,50.3 L 383.2,50.6 L 386.4,50.8 L 389.5,51.2 L 392.6,51.7 L 395.7,52.5 L 398.8,53.5 L 401.9,55.0 L 405.0,57.4 L 408.1,61.4 L 411.2,69.0 L 414.3,85.2 L 417.4,126.7 L 420.5,331.0 L 423.6,126.7 L 426.7,85.2 L 429.8,69.0 L 432.9,61.4 L 436.0,57.4 L 439.1,55.0 L 442.2,53.5 L 445.3,52.5 L 448.4,51.7 L 451.5,51.2 L 454.7,50.8 L 457.8,50.6 L 460.9,50.3 L 464.0,50.1 L 467.1,50.0 L 470.2,49.9 L 473.3,49.8 L 476.4,49.7 L 479.5,49.6 L 482.6,49.5 L 485.7,49.5 L 488.8,49.4 L 491.9,49.4 L 495.0,49.4 L 498.1,49.3 L 501.2,49.3 L 504.3,49.3 L 507.4,49.3 L 510.5,49.2 L 513.6,49.2 L 516.7,49.2 L 519.8,49.2 L 523.0,49.2 L 526.1,49.2 L 529.2,49.2 L 532.3,49.1 L 535.4,49.1 L 538.5,49.1 L 541.6,49.1 L 544.7,49.1 L 547.8,49.1 L 550.9,49.1 L 554.0,49.1 L 557.1,49.1 L 560.2,49.1 L 563.3,49.1 L 566.4,49.1 L 569.5,49.1 L 572.6,49.1 L 575.7,49.1 L 578.8,49.1 L 581.9,49.1 L 585.0,49.1 L 588.1,49.1 L 591.2,49.1 L 594.4,49.0 L 597.5,49.0 L 600.6,49.0 L 603.7,49.0 L 606.8,49.0 L 609.9,49.0 L 613.0,49.0 L 616.1,49.0 L 619.2,49.0 L 622.3,49.0 L 625.4,49.0 L 628.5,49.0 L 631.6,49.0 L 634.7,49.0 L 637.8,49.0 L 640.9,49.0 L 644.0,49.0 L 647.1,49.0 L 650.2,49.0 L 653.3,49.0 L 656.4,49.0 L 659.5,49.0 L 662.7,49.0 L 665.8,49.0 L 668.9,49.0 L 672.0,49.0 L 675.1,49.0 L 678.2,49.0 L 681.3,49.0 L 684.4,49.0 L 687.5,49.0 L 690.6,49.0 L 693.7,49.0 L 696.8,49.0 L 699.9,49.0 L 703.0,49.0 L 706.1,49.0 L 709.2,49.0 L 712.3,49.0 L 715.4,49.0 L 718.5,49.0 L 721.6,49.0 L 724.7,49.0 L 727.9,49.0 L 731.0,49.0 L 734.1,49.0 L 737.2,49.0 L 740.3,49.0 L 743.4,49.0 L 746.5,49.0 L 749.6,49.0 L 752.7,49.0 L 755.8,49.0 L 758.9,49.0 L 762.0,49.0" stroke="#ef4444" stroke-width="2.5" fill="none" clip-path="url(#clip)"/>
  <text x="400.0" y="420" text-anchor="middle" font-size="12" fill="#e2e8f0">Plot 6 — what type of filter is this?</text>
</svg>
