<svg xmlns="http://www.w3.org/2000/svg" viewBox="0 0 560 380" role="img" aria-label="Frequency multiplier circuit">
<rect width="560" height="380" fill="#0a0e1a" rx="8"/>
<line x1="200" y1="40" x2="420" y2="40" stroke="#94a3b8" stroke-width="1.8"/><text x="450" y="44" font-family="IBM Plex Mono, monospace" font-size="12" fill="#06b6d4" text-anchor="middle">+V</text>
<g transform="translate(280,210) rotate(0)"><line x1="-28" y1="0" x2="-8" y2="0" stroke="#e2e8f0" stroke-width="1.8"/><line x1="-8" y1="-22" x2="-8" y2="22" stroke="#e2e8f0" stroke-width="1.8"/><line x1="-8" y1="-12" x2="12" y2="-22" stroke="#e2e8f0" stroke-width="1.8"/><line x1="12" y1="-22" x2="12" y2="-30" stroke="#e2e8f0" stroke-width="1.8"/><line x1="-8" y1="12" x2="12" y2="22" stroke="#e2e8f0" stroke-width="1.8"/><line x1="12" y1="22" x2="12" y2="30" stroke="#e2e8f0" stroke-width="1.8"/><polygon points="2,18 12,22 8,14" fill="#e2e8f0"/><text x="16" y="-30" font-family="IBM Plex Mono, monospace" font-size="9" fill="#64748b">C</text><text x="16" y="38" font-family="IBM Plex Mono, monospace" font-size="9" fill="#64748b">E</text><text x="-30" y="10" font-family="IBM Plex Mono, monospace" font-size="9" fill="#64748b" text-anchor="end">B</text></g><line x1="252" y1="210" x2="120" y2="210" stroke="#94a3b8" stroke-width="1.8"/><g transform="translate(90,210) rotate(0)"><line x1="-28" y1="0" x2="-6" y2="0" stroke="#e2e8f0" stroke-width="1.8"/><line x1="-6" y1="-16" x2="-6" y2="16" stroke="#e2e8f0" stroke-width="1.8"/><line x1="6" y1="-16" x2="6" y2="16" stroke="#e2e8f0" stroke-width="1.8"/><line x1="6" y1="0" x2="28" y2="0" stroke="#e2e8f0" stroke-width="1.8"/></g><line x1="60" y1="210" x2="30" y2="210" stroke="#94a3b8" stroke-width="1.8"/><text x="20" y="214" font-family="IBM Plex Sans, sans-serif" font-size="9" fill="#64748b" text-anchor="end">RF in (f)</text>
<line x1="120" y1="210" x2="120" y2="270" stroke="#94a3b8" stroke-width="1.8"/><g transform="translate(120,300) rotate(90)"><line x1="-28" y1="0" x2="-18" y2="0" stroke="#e2e8f0" stroke-width="1.8"/><rect x="-18" y="-9" width="36" height="18" fill="none" stroke="#e2e8f0" stroke-width="1.8"/><line x1="18" y1="0" x2="28" y2="0" stroke="#e2e8f0" stroke-width="1.8"/></g><line x1="120" y1="330" x2="120" y2="300" stroke="#94a3b8" stroke-width="1.8"/><line x1="120" y1="300" x2="120" y2="308" stroke="#94a3b8" stroke-width="1.6"/><line x1="108" y1="308" x2="132" y2="308" stroke="#94a3b8" stroke-width="1.4"/><line x1="113" y1="313" x2="127" y2="313" stroke="#94a3b8" stroke-width="1.1"/><line x1="117" y1="318" x2="123" y2="318" stroke="#94a3b8" stroke-width="0.9"/><text x="150" y="300" font-family="IBM Plex Sans, sans-serif" font-size="8" fill="#64748b" text-anchor="start">bias R (Class C:</text>
<text x="150" y="313" font-family="IBM Plex Sans, sans-serif" font-size="8" fill="#64748b" text-anchor="start">base near cut-off)</text>
<line x1="292" y1="180" x2="292" y2="130" stroke="#94a3b8" stroke-width="1.8"/><line x1="292" y1="130" x2="292" y2="40" stroke="#94a3b8" stroke-width="1.8"/><line x1="292" y1="130" x2="380" y2="130" stroke="#94a3b8" stroke-width="1.8"/><g transform="translate(380,100) rotate(90)"><line x1="-28" y1="0" x2="-20" y2="0" stroke="#e2e8f0" stroke-width="1.8"/><path d="M -20.0,0 A 6.7 6.7 0 0 1 -6.7,0" stroke="#e2e8f0" stroke-width="1.8" fill="none"/><path d="M -6.7,0 A 6.7 6.7 0 0 1 6.7,0" stroke="#e2e8f0" stroke-width="1.8" fill="none"/><path d="M 6.7,0 A 6.7 6.7 0 0 1 20.0,0" stroke="#e2e8f0" stroke-width="1.8" fill="none"/><line x1="20" y1="0" x2="28" y2="0" stroke="#e2e8f0" stroke-width="1.8"/></g><line x1="380" y1="130" x2="380" y2="160" stroke="#94a3b8" stroke-width="1.8"/><g transform="translate(380,190) rotate(90)"><line x1="-28" y1="0" x2="-6" y2="0" stroke="#e2e8f0" stroke-width="1.8"/><line x1="-6" y1="-16" x2="-6" y2="16" stroke="#e2e8f0" stroke-width="1.8"/><line x1="6" y1="-16" x2="6" y2="16" stroke="#e2e8f0" stroke-width="1.8"/><line x1="6" y1="0" x2="28" y2="0" stroke="#e2e8f0" stroke-width="1.8"/><line x1="-12" y1="18" x2="12" y2="-18" stroke="#f59e0b" stroke-width="1.4"/><line x1="12" y1="-18" x2="4" y2="-14" stroke="#f59e0b" stroke-width="1.4"/><line x1="12" y1="-18" x2="8" y2="-10" stroke="#f59e0b" stroke-width="1.4"/></g><line x1="380" y1="220" x2="380" y2="300" stroke="#94a3b8" stroke-width="1.8"/><line x1="380" y1="300" x2="380" y2="308" stroke="#94a3b8" stroke-width="1.6"/><line x1="368" y1="308" x2="392" y2="308" stroke="#94a3b8" stroke-width="1.4"/><line x1="373" y1="313" x2="387" y2="313" stroke="#94a3b8" stroke-width="1.1"/><line x1="377" y1="318" x2="383" y2="318" stroke="#94a3b8" stroke-width="0.9"/><line x1="380" y1="130" x2="460" y2="130" stroke="#94a3b8" stroke-width="1.8"/><line x1="460" y1="130" x2="494" y2="130" stroke="#94a3b8" stroke-width="2"/>
<polygon points="492,126 492,134 500,130" fill="#94a3b8"/>
<text x="505" y="125" font-family="IBM Plex Mono, monospace" font-size="10" fill="#22c55e" text-anchor="start">out</text>
<text x="505" y="138" font-family="IBM Plex Sans, sans-serif" font-size="9" fill="#22c55e" text-anchor="start">2f or 3f</text>
<line x1="272" y1="260" x2="272" y2="268" stroke="#94a3b8" stroke-width="1.6"/><line x1="260" y1="268" x2="284" y2="268" stroke="#94a3b8" stroke-width="1.4"/><line x1="265" y1="273" x2="279" y2="273" stroke="#94a3b8" stroke-width="1.1"/><line x1="269" y1="278" x2="275" y2="278" stroke="#94a3b8" stroke-width="0.9"/><line x1="272" y1="240" x2="272" y2="260" stroke="#94a3b8" stroke-width="1.8"/><text x="280.0" y="370" font-family="IBM Plex Sans, sans-serif" font-size="11" fill="#64748b" text-anchor="middle">Fig 7.10 &#8212; Frequency multiplier: Class C bias (base near cut-off) generates harmonics; the collector tuned circuit selects 2f or 3f</text>
</svg>
